# xmcd
#
# Track frame offsets: 
#        150
#        15303
#        27857
#        42884
#        60693
#        77689
#        92935
#        107314
#        122371
#        133856
#        146908
#        161794
#
# Disc length: 2347 seconds
#
# Revision: 0
# Processed by: cddbd v1.5.1PL0 Copyright (c) Steve Scherf et al.
# Submitted via: ExactAudioCopy v0.90b3
#
DISCID=9609290c
DTITLE=Country Delight - I feel lucky
DYEAR=1999
DGENRE=Country New
TTITLE0=One day you want me back
TTITLE1=Teach your children well
TTITLE2=Today I'll see you again
TTITLE3=Old Hippie
TTITLE4=Dreaming
TTITLE5=I feel lucky
TTITLE6=Thank God for the radio
TTITLE7=Where you belong
TTITLE8=Cherokee Boogie
TTITLE9=I wanna go out tonight
TTITLE10=Somewhere tonight
TTITLE11=Hey, good lookin'
EXTD=
EXTT0=
EXTT1=
EXTT2=
EXTT3=
EXTT4=
EXTT5=
EXTT6=
EXTT7=
EXTT8=
EXTT9=
EXTT10=
EXTT11=
PLAYORDER=
